# xmcd CD database file
#
# Track frame offsets:
#	150
#	18147
#	40191
#	54801
#	71665
#	86755
#	101030
#	120047
#	136484
#	155624
#	183202
#	198998
#	220337
#
# Disc length: 3121 seconds
#
# Revision: 0
# Processed by: cddbd v1.5.2PL0 Copyright (c) Steve Scherf et al.
# Submitted via: CDex 1.70beta2
#
DISCID=a70c2f0d
DTITLE=Union Spirit - Just Us
DYEAR=2011
DGENRE=Country
TTITLE0=Chevrolet
TTITLE1=On The Road
TTITLE2=Cold And Grey
TTITLE3=Leaving
TTITLE4=Rock With You (with Ian Scott)
TTITLE5=Keep The Union Spirit
TTITLE6=Nature's Calling Me
TTITLE7=Carpe Diem, One Chance On Earth
TTITLE8=No Way
TTITLE9=Ghost Riders In The Sky
TTITLE10=Physical Thing
TTITLE11=Time Flies
TTITLE12=Cold And Grey (with Pierre Lorry)
EXTD=YEAR: 2011
EXTT0=
EXTT1=
EXTT2=
EXTT3=
EXTT4=
EXTT5=
EXTT6=
EXTT7=
EXTT8=
EXTT9=
EXTT10=
EXTT11=
EXTT12=
PLAYORDER=
